<?xml version="1.0" standalone="no"?>
<!DOCTYPE svg PUBLIC "-//W3C//DTD SVG 20010904//EN"
 "http://www.w3.org/TR/2001/REC-SVG-20010904/DTD/svg10.dtd">
<svg version="1.0" xmlns="http://www.w3.org/2000/svg"
 width="500.000000pt" height="500.000000pt" viewBox="0 0 500.000000 500.000000"
 preserveAspectRatio="xMidYMid meet">

<g transform="translate(0.000000,500.000000) scale(0.100000,-0.100000)"
fill="#000000" stroke="none">
<path d="M3520 3562 c0 -5 14 -21 31 -38 48 -45 137 -158 185 -237 24 -39 44
-67 44 -62 0 20 -104 172 -176 257 -74 87 -84 96 -84 80z"/>
<path d="M1320 3314 c-31 -50 -39 -69 -30 -78 8 -8 9 -6 4 8 -5 14 -4 17 5 12
6 -4 11 -4 10 1 -3 20 2 34 11 28 6 -4 7 1 3 11 -5 13 -3 15 8 9 8 -4 11 -5 7
0 -4 4 2 23 13 42 11 18 18 33 16 33 -3 0 -24 -30 -47 -66z"/>
<path d="M1316 3225 c-9 -26 -7 -32 5 -12 6 10 9 21 6 23 -2 3 -7 -2 -11 -11z"/>
<path d="M1287 2749 c4 -13 8 -18 11 -10 2 7 -1 18 -6 23 -8 8 -9 4 -5 -13z"/>
<path d="M1212 2680 c0 -19 2 -27 5 -17 2 9 2 25 0 35 -3 9 -5 1 -5 -18z"/>
<path d="M1073 2644 c-9 -23 4 -363 16 -404 8 -27 8 -21 3 30 -4 36 -7 138 -7
228 0 89 -1 162 -3 162 -1 0 -5 -7 -9 -16z"/>
<path d="M1054 2490 c0 -85 2 -120 3 -77 2 42 2 112 0 155 -1 42 -3 7 -3 -78z"/>
<path d="M1094 2490 c0 -80 2 -112 3 -72 2 39 2 105 0 145 -1 39 -3 7 -3 -73z"/>
<path d="M1114 2485 c0 -77 2 -107 3 -67 2 40 2 103 0 140 -2 37 -3 4 -3 -73z"/>
<path d="M1134 2495 c0 -71 1 -99 3 -62 2 37 2 96 0 130 -2 34 -3 4 -3 -68z"/>
<path d="M1154 2495 c0 -71 1 -99 3 -62 2 37 2 96 0 130 -2 34 -3 4 -3 -68z"/>
<path d="M1223 2560 c0 -25 2 -35 4 -22 2 12 2 32 0 45 -2 12 -4 2 -4 -23z"/>
<path d="M1270 2571 c0 -12 5 -21 10 -21 6 0 10 6 10 14 0 8 -4 18 -10 21 -5
3 -10 -3 -10 -14z"/>
<path d="M1248 2524 c-5 -4 -8 -19 -8 -33 1 -23 2 -24 11 -8 11 19 9 53 -3 41z"/>
<path d="M1302 2510 c0 -14 2 -19 5 -12 2 6 2 18 0 25 -3 6 -5 1 -5 -13z"/>
<path d="M1272 2480 c0 -19 2 -27 5 -17 2 9 2 25 0 35 -3 9 -5 1 -5 -18z"/>
<path d="M1202 2480 c0 -14 2 -19 5 -12 2 6 2 18 0 25 -3 6 -5 1 -5 -13z"/>
<path d="M1217 2431 c-4 -17 -3 -21 5 -13 5 5 8 16 6 23 -3 8 -7 3 -11 -10z"/>
<path d="M1287 2420 c3 -11 7 -20 9 -20 2 0 4 9 4 20 0 11 -4 20 -9 20 -5 0
-7 -9 -4 -20z"/>
<path d="M1172 2410 c0 -14 2 -19 5 -12 2 6 2 18 0 25 -3 6 -5 1 -5 -13z"/>
<path d="M1237 2411 c-4 -17 -3 -21 5 -13 5 5 8 16 6 23 -3 8 -7 3 -11 -10z"/>
<path d="M1262 2390 c0 -14 2 -19 5 -12 2 6 2 18 0 25 -3 6 -5 1 -5 -13z"/>
<path d="M1310 2394 c0 -8 5 -12 10 -9 6 4 8 11 5 16 -9 14 -15 11 -15 -7z"/>
<path d="M1192 2380 c0 -14 2 -19 5 -12 2 6 2 18 0 25 -3 6 -5 1 -5 -13z"/>
<path d="M1281 2364 c0 -11 3 -14 6 -6 3 7 2 16 -1 19 -3 4 -6 -2 -5 -13z"/>
<path d="M1340 2366 c0 -8 4 -17 9 -20 5 -4 7 3 4 14 -6 23 -13 26 -13 6z"/>
<path d="M1211 2354 c0 -11 3 -14 6 -6 3 7 2 16 -1 19 -3 4 -6 -2 -5 -13z"/>
<path d="M1142 2330 c0 -19 3 -53 7 -75 8 -40 8 -39 16 28 4 37 5 71 1 74 -3
4 -7 -14 -8 -38 l-1 -44 -7 45 c-6 41 -7 42 -8 10z"/>
<path d="M1300 2345 c0 -8 2 -15 4 -15 2 0 6 7 10 15 3 8 1 15 -4 15 -6 0 -10
-7 -10 -15z"/>
<path d="M1231 2334 c0 -11 3 -14 6 -6 3 7 2 16 -1 19 -3 4 -6 -2 -5 -13z"/>
<path d="M1103 2305 c0 -22 2 -30 4 -17 2 12 2 30 0 40 -3 9 -5 -1 -4 -23z"/>
<path d="M1123 2305 c0 -22 2 -30 4 -17 2 12 2 30 0 40 -3 9 -5 -1 -4 -23z"/>
<path d="M1252 2320 c0 -14 2 -19 5 -12 2 6 2 18 0 25 -3 6 -5 1 -5 -13z"/>
<path d="M1327 2333 c-4 -3 -7 -13 -7 -22 1 -13 3 -13 11 2 11 19 8 33 -4 20z"/>
<path d="M1063 2295 c0 -22 2 -30 4 -17 2 12 2 30 0 40 -3 9 -5 -1 -4 -23z"/>
<path d="M1173 2253 c-7 -39 -10 -86 -6 -105 l7 -33 13 45 12 45 -4 -45 c-4
-34 -3 -40 5 -25 7 15 8 11 5 -20 -4 -30 -3 -35 4 -20 13 28 13 5 0 -33 -13
-38 6 -115 22 -91 6 9 8 4 3 -16 -4 -23 -3 -26 5 -15 10 13 11 13 11 0 1 -9 6
-5 15 10 9 15 15 19 15 10 0 -9 6 -5 15 10 8 14 14 21 14 15 0 -17 -28 -61
-29 -45 0 8 -7 3 -16 -13 -9 -16 -12 -37 -8 -49 6 -20 9 -17 31 23 13 24 21
33 17 20 -4 -17 -3 -21 6 -16 7 4 5 -5 -4 -23 -18 -36 -20 -46 -6 -37 6 4 7
-1 3 -11 -4 -12 -3 -15 5 -10 8 5 10 1 5 -10 -4 -12 -3 -15 5 -10 8 4 10 2 6
-8 -6 -16 11 -16 36 -2 12 7 13 6 3 -5 -7 -7 -13 -17 -13 -22 0 -4 6 -5 13 -1
7 4 9 3 4 -2 -5 -5 -14 -9 -20 -9 -5 0 -12 -5 -14 -12 -4 -12 14 -12 35 0 6 5
12 5 12 1 0 -3 8 0 18 7 15 13 16 12 3 -3 -7 -10 -17 -16 -21 -13 -5 3 -11 1
-15 -5 -4 -6 -11 -8 -16 -5 -5 4 -9 2 -9 -3 0 -16 13 -22 27 -11 7 6 13 8 13
4 0 -5 8 -1 18 8 9 8 21 16 27 16 5 0 11 5 14 12 2 7 -1 9 -9 4 -9 -6 -11 -4
-5 5 6 10 10 10 20 -3 9 -13 15 -14 25 -4 12 10 12 9 1 -5 -7 -10 -17 -16 -21
-13 -5 3 -11 1 -15 -5 -4 -6 -10 -8 -14 -5 -5 2 -16 -4 -26 -15 -10 -11 -22
-17 -26 -14 -10 6 -12 -10 -2 -19 3 -4 15 0 25 10 10 9 18 13 18 8 0 -4 7 -1
16 6 19 15 47 21 38 8 -3 -5 -9 -7 -13 -4 -5 2 -18 -7 -31 -20 -13 -13 -27
-22 -31 -19 -11 6 -12 -10 -2 -19 3 -4 15 0 25 10 10 9 18 12 18 8 0 -5 11 2
24 14 18 17 26 19 31 10 5 -7 4 -10 -2 -6 -14 9 -77 -59 -68 -73 5 -8 19 0 45
25 22 21 40 32 44 27 6 -11 -11 -27 -29 -27 -5 0 -11 -6 -11 -12 -1 -7 -3 -16
-4 -20 -1 -5 -2 -10 -2 -14 1 -9 -86 -4 -95 5 -4 5 -3 7 2 3 6 -3 12 4 12 16
2 15 0 18 -6 9 -7 -11 -10 -10 -15 3 -3 9 -10 14 -15 10 -5 -3 -13 -1 -16 5
-4 6 -1 9 6 8 6 -2 13 2 16 9 3 8 -3 11 -16 8 -11 -2 -23 1 -27 6 -3 5 0 8 7
7 6 -2 13 2 16 9 3 8 -3 11 -16 8 -11 -2 -23 0 -26 4 -2 5 5 8 17 7 12 0 23 4
25 10 2 7 -7 11 -26 9 -23 -2 -28 1 -24 14 4 12 3 13 -5 3 -7 -11 -11 -10 -16
5 -12 28 -17 80 -7 65 12 -21 24 15 11 36 -8 14 -9 14 -10 2 0 -13 -1 -13 -10
0 -9 13 -10 13 -10 0 0 -13 -1 -13 -10 0 -8 12 -10 12 -10 1 0 -8 -2 -12 -5
-9 -3 3 2 21 10 41 17 40 20 60 6 38 -8 -12 -11 -8 -17 14 -7 26 -8 27 -16 10
-6 -15 -7 -13 -4 10 l5 30 -15 -33 c-10 -23 -11 -38 -5 -50 8 -14 10 -14 11
-2 0 13 1 13 10 0 13 -20 13 -33 0 -25 -6 4 -7 -2 -1 -17 5 -13 15 -22 21 -20
8 2 10 -3 6 -13 -4 -11 -2 -14 6 -9 7 5 9 2 5 -9 -6 -16 35 -90 107 -191 44
-61 208 -244 233 -259 7 -4 25 -20 41 -34 37 -34 175 -125 241 -158 73 -37
218 -92 261 -99 42 -8 65 -14 65 -17 0 -1 11 -3 25 -4 14 -2 41 -7 60 -11 19
-4 123 -8 230 -8 169 -1 209 2 299 22 145 33 279 82 257 94 -11 6 -32 4 -63
-6 -26 -9 -51 -16 -57 -15 -11 0 65 29 114 43 17 5 20 4 12 -2 -11 -7 -9 -10
7 -15 14 -3 19 -1 14 6 -4 7 0 8 11 4 11 -5 15 -3 10 5 -5 8 -2 9 10 5 10 -4
15 -3 11 4 -4 5 -16 7 -28 4 -17 -5 -19 -4 -7 4 13 10 13 11 0 11 -13 0 -13 1
0 11 12 8 10 9 -10 5 -67 -16 -70 -15 -16 5 37 14 54 24 46 29 -9 6 -6 10 8
15 12 3 30 1 39 -5 15 -8 12 -9 -12 -5 -23 4 -25 3 -10 -3 l20 -9 -20 -5 -20
-6 20 -1 c17 -2 16 -4 -8 -14 l-27 -12 26 -12 c23 -11 24 -10 12 4 -11 15 -11
16 5 10 12 -5 16 -3 11 5 -5 8 -2 9 10 5 11 -5 15 -3 10 5 -5 8 -2 9 10 5 11
-5 15 -3 10 5 -5 8 -2 9 10 5 11 -5 15 -3 10 5 -5 8 -2 9 10 5 9 -4 15 -3 12
2 -3 5 1 12 10 15 13 5 14 9 4 21 -7 8 -9 15 -4 15 5 0 0 7 -10 15 -15 11 -16
15 -5 15 8 0 21 -6 29 -12 12 -11 12 -10 1 5 -15 20 -2 23 19 5 12 -11 12 -10
1 5 -7 9 -10 17 -6 17 5 0 18 -8 29 -17 l21 -18 -20 24 c-18 22 -18 24 -2 18
12 -5 16 -3 11 5 -5 8 -2 9 10 5 11 -5 15 -3 10 5 -5 8 -2 9 9 5 17 -6 31 5
21 16 -4 3 -29 -5 -56 -19 -27 -14 -54 -22 -60 -18 -7 5 -8 2 -3 -6 6 -10 4
-12 -8 -7 -10 3 -17 2 -17 -3 0 -5 -10 -12 -21 -15 -17 -6 -19 -9 -8 -17 10
-7 8 -8 -9 -5 -13 3 -20 1 -16 -5 4 -6 -2 -8 -17 -3 -16 4 -20 3 -11 -3 9 -6
-20 -19 -95 -40 -121 -35 -272 -67 -279 -59 -3 3 14 8 38 12 98 16 209 48 196
57 -8 5 -2 6 17 2 24 -4 27 -3 15 6 -12 9 -10 11 12 6 14 -3 37 -2 50 3 13 6
16 10 8 11 -13 0 -13 1 0 11 11 8 9 9 -10 3 -14 -4 -63 -18 -110 -30 -47 -12
-76 -23 -66 -23 11 -1 17 -3 14 -6 -2 -3 -31 0 -63 7 l-58 11 47 14 c27 8 50
12 53 9 3 -3 -10 -9 -28 -15 -19 -5 -26 -10 -16 -10 19 -1 108 24 142 40 11 5
12 7 3 5 -9 -3 -34 -7 -55 -10 -34 -5 -33 -4 10 8 26 8 77 13 114 12 65 -2 64
1 -7 23 -30 9 -30 10 -5 5 17 -2 54 4 85 15 30 11 48 20 40 21 -8 0 -1 8 15
16 17 8 21 12 10 8 -129 -37 -278 -74 -282 -70 -4 3 2 6 13 6 13 1 8 6 -14 15
-30 13 -36 13 -49 0 -13 -13 -12 -16 9 -25 23 -10 23 -11 1 -6 -13 2 -23 0
-23 -5 0 -4 -7 -6 -16 -2 -12 4 -13 7 -3 14 10 6 9 9 -6 14 -11 4 -28 11 -37
16 -12 6 -18 6 -18 -2 0 -5 -5 -7 -10 -4 -8 5 -7 12 2 23 11 13 11 14 -2 10
-9 -3 -15 -16 -14 -32 1 -16 -3 -25 -10 -23 -6 2 -20 0 -31 -6 -11 -6 -31 -12
-44 -13 -13 -2 -28 -8 -32 -15 -4 -7 -14 -9 -22 -6 -8 3 -18 2 -23 -3 -5 -5
-25 -12 -44 -15 -19 -3 -40 -12 -46 -20 -14 -19 -25 -19 -18 -2 3 8 -1 14 -9
14 -9 0 -13 -9 -11 -23 2 -23 1 -23 -33 -9 -19 8 -40 12 -46 8 -6 -4 -7 -1 -2
7 6 10 1 11 -21 6 -61 -14 -124 -19 -124 -8 0 6 -17 9 -40 8 -32 -3 -40 0 -39
13 0 9 2 12 5 6 2 -6 30 -9 61 -7 42 2 54 0 43 -7 -13 -9 -13 -11 1 -11 9 0
29 4 45 9 59 19 94 21 94 7 0 -14 21 -26 43 -26 7 1 1 7 -13 14 l-24 14 39 11
c22 5 78 19 125 30 47 11 103 29 125 40 38 19 38 20 10 17 -16 -2 -31 -8 -33
-15 -2 -6 -8 -11 -13 -11 -6 0 -7 5 -4 10 9 14 -8 12 -24 -2 -11 -11 -12 -10
-7 0 10 18 -42 5 -69 -17 -18 -15 -19 -15 -6 2 9 12 10 17 2 17 -6 0 -14 -7
-17 -15 -6 -15 -25 -21 -23 -7 3 19 -2 25 -11 12 -5 -8 -10 -10 -10 -4 0 8
-18 11 -55 8 -34 -2 -55 0 -55 7 0 6 -4 8 -8 5 -5 -3 -30 1 -56 9 -27 8 -52
12 -57 9 -5 -3 -9 -1 -9 4 0 6 -24 24 -54 40 -72 41 -111 91 -142 184 -34 103
-83 153 -180 186 -38 13 -91 34 -119 47 -27 12 -81 33 -120 46 -38 13 -72 27
-73 32 -2 4 -9 4 -15 0 -7 -4 -8 0 -3 12 5 15 4 16 -8 6 -26 -22 -128 42 -110
70 5 8 3 9 -6 4 -10 -6 -12 -4 -7 9 4 10 3 15 -4 11 -5 -4 -7 -16 -3 -27 5
-18 4 -19 -9 -7 -8 8 -13 17 -10 22 2 4 2 7 -1 7 -3 0 -14 -17 -25 -37 -11
-21 -20 -31 -21 -23 0 9 -6 5 -15 -10 -17 -30 -19 -21 -3 15 6 14 14 21 18 15
4 -6 11 0 18 15 7 15 8 25 2 25 -6 0 -10 -5 -10 -12 0 -6 -2 -9 -5 -6 -12 12
8 36 26 33 11 -2 23 4 29 16 6 11 15 17 20 14 6 -3 7 1 3 10 -4 13 -8 14 -14
4 -11 -18 -21 -6 -13 15 3 9 11 13 18 10 6 -3 3 1 -8 10 -10 8 -15 19 -12 24
3 6 -1 13 -10 16 -22 8 -31 7 -16 -2 18 -12 -9 -87 -32 -86 -32 3 -36 4 -36
13 0 6 9 8 20 6 11 -2 22 0 24 4 3 4 -7 7 -21 6 -21 -1 -31 -10 -45 -40 -10
-22 -16 -32 -14 -23 3 9 10 36 16 59 9 31 14 39 21 28 7 -12 9 -12 9 1 0 9 3
11 8 5 9 -13 27 -13 39 -1 5 5 2 6 -6 1 -11 -6 -13 -2 -7 19 4 17 3 25 -3 22
-5 -3 -11 -1 -13 6 -3 7 -7 5 -11 -6 -4 -10 -3 -15 3 -11 6 3 10 -1 10 -9 0
-9 -7 -13 -20 -11 -11 2 -24 -3 -30 -13 -8 -14 -10 -14 -11 -2 -1 18 -28 -38
-28 -60 -1 -13 0 -13 10 0 8 11 9 9 3 -10 -3 -14 -10 -32 -15 -40 -7 -13 -8
-13 -9 0 0 13 -1 13 -10 0 -14 -22 -12 -10 8 51 24 68 36 130 22 109 -9 -13
-10 -13 -11 0 0 8 -7 2 -15 -15 l-14 -30 6 35 c13 77 13 83 -1 45 l-15 -40 5
40 c5 31 3 37 -5 25 -9 -11 -10 -3 -6 35 3 31 2 42 -3 30 -8 -18 -9 -16 -12
10 -3 22 -7 11 -16 -42z m12 -43 c-4 -23 -9 -39 -11 -37 -3 2 -2 23 2 46 4 23
9 40 11 37 3 -3 2 -23 -2 -46z m59 -104 c-3 -15 -8 -25 -11 -23 -2 3 -1 17 3
31 3 15 8 25 11 23 2 -3 1 -17 -3 -31z m146 -38 c-8 -21 -20 -34 -31 -35 -11
-1 -19 2 -19 8 0 5 6 8 12 7 7 -2 20 11 28 29 19 40 25 35 10 -9z m-99 -75
c-12 -20 -14 -14 -5 12 4 9 9 14 11 11 3 -2 0 -13 -6 -23z m40 -10 c-12 -20
-14 -14 -5 12 4 9 9 14 11 11 3 -2 0 -13 -6 -23z m-70 -10 c-12 -20 -14 -14
-5 12 4 9 9 14 11 11 3 -2 0 -13 -6 -23z m100 -72 c-17 -34 -34 -61 -36 -61
-3 0 -1 9 5 19 13 25 13 34 0 26 -6 -3 -7 1 -3 10 4 11 8 13 13 5 4 -6 14 6
25 30 10 22 20 38 22 36 2 -2 -10 -31 -26 -65z m-151 -6 c0 -5 -5 -3 -10 5 -5
8 -10 20 -10 25 0 6 5 3 10 -5 5 -8 10 -19 10 -25z m190 -3 c0 -5 -7 -17 -15
-28 -14 -18 -14 -17 -4 9 12 27 19 34 19 19z m-7 -59 c-4 -11 -3 -14 5 -9 8 5
10 1 5 -10 -4 -12 -3 -15 5 -10 8 5 10 1 5 -10 -5 -13 -3 -15 8 -9 8 5 11 4 6
0 -14 -16 -36 -14 -30 3 4 10 2 13 -5 8 -8 -5 -10 -1 -5 10 5 12 3 15 -6 9
-10 -6 -11 -3 -2 14 14 25 23 28 14 4z m130 -216 c-4 -7 -8 -15 -9 -19 -1 -5
-3 -10 -4 -13 -7 -13 -5 -31 3 -42 5 -7 6 -13 1 -13 -4 0 5 -13 21 -30 16 -16
25 -30 21 -30 -5 0 -3 -7 4 -15 6 -8 17 -13 22 -12 13 3 19 -31 8 -38 -5 -3
-7 -15 -5 -26 4 -17 2 -19 -11 -8 -8 6 -12 14 -9 17 3 3 0 11 -6 19 -6 7 -8
13 -3 13 5 0 -16 24 -45 54 -33 34 -60 53 -71 51 -10 -2 -27 7 -39 19 l-21 22
32 -1 c18 0 38 -4 44 -8 6 -3 19 2 29 13 10 11 14 20 10 20 -4 0 -1 8 8 18 10
10 14 22 10 27 -5 4 -2 5 5 1 7 -4 9 -13 5 -19z m-169 -3 c3 -8 2 -12 -4 -9
-6 3 -10 10 -10 16 0 14 7 11 14 -7z m212 -49 c1 -8 -1 -17 -5 -19 -4 -3 -7 6
-7 19 0 25 8 25 12 0z m11 -50 c0 -8 -4 -12 -9 -9 -5 3 -6 10 -3 15 9 13 12
11 12 -6z m-94 -40 c4 3 5 2 2 -2 -3 -4 7 -19 22 -35 15 -15 25 -28 22 -28 -3
0 -25 21 -49 47 -25 26 -36 40 -24 30 11 -9 24 -15 27 -12z m162 -92 c-2 -10
-4 -19 -4 -21 -1 -2 -6 0 -11 3 -8 5 -7 11 1 21 15 18 18 18 14 -3z m1470 -33
c-11 -5 -27 -9 -35 -9 -9 0 -8 4 5 9 11 5 27 9 35 9 9 0 8 -4 -5 -9z m-302
-27 c-7 -2 -19 -2 -25 0 -7 3 -2 5 12 5 14 0 19 -2 13 -5z m232 -3 c13 -5 14
-9 5 -9 -8 0 -24 4 -35 9 -13 5 -14 9 -5 9 8 0 24 -4 35 -9z m-170 -22 l30 1
-28 -9 c-17 -5 -39 -5 -54 1 -13 5 -32 9 -41 9 -15 0 -15 -2 -2 -10 13 -8 12
-10 -2 -10 -10 0 -18 7 -18 16 0 14 7 15 43 9 23 -4 56 -7 72 -7z m62 6 c-3
-3 -12 -4 -19 -1 -8 3 -5 6 6 6 11 1 17 -2 13 -5z m278 -1 c15 -5 15 -8 -5
-18 -19 -10 -20 -13 -6 -18 10 -4 15 -3 11 3 -3 6 -2 10 4 10 5 0 12 -4 15 -8
5 -9 -83 -56 -91 -48 -2 2 6 7 18 11 l22 7 -24 15 -24 14 24 -7 c15 -4 21 -2
17 4 -3 6 3 14 15 17 17 6 19 9 8 16 -17 10 -8 12 16 2z m-449 -28 c24 -12 26
-15 9 -15 -12 0 -25 4 -30 9 -6 5 -21 11 -35 14 l-25 4 26 2 c15 0 40 -6 55
-14z m61 -1 c-3 -3 -12 -4 -19 -1 -8 3 -5 6 6 6 11 1 17 -2 13 -5z m-170 -10
c-3 -3 -12 -4 -19 -1 -8 3 -5 6 6 6 11 1 17 -2 13 -5z m56 -1 c-7 -2 -19 -2
-25 0 -7 3 -2 5 12 5 14 0 19 -2 13 -5z m-82 -20 c11 -13 11 -15 1 -9 -8 5
-26 12 -40 16 l-27 8 26 1 c15 1 33 -7 40 -16z m134 6 c17 -8 16 -9 -7 -6 -15
2 -25 0 -22 -4 3 -5 15 -9 27 -10 12 0 16 -3 9 -6 -7 -3 -34 1 -59 9 l-46 13
34 6 c19 4 36 7 39 7 3 0 14 -4 25 -9z m-195 -8 c14 -4 20 -9 15 -13 -6 -3
-26 0 -45 8 -37 13 -14 17 30 5z m257 -7 c-3 -3 -12 -4 -19 -1 -8 3 -5 6 6 6
11 1 17 -2 13 -5z m-77 -22 c32 -9 33 -10 8 -11 -20 -1 -26 -5 -22 -16 7 -17
-15 -19 -56 -4 -21 7 -19 8 11 4 28 -4 36 -2 36 10 0 10 -6 14 -14 10 -8 -3
-33 -5 -54 -5 -24 0 -38 -4 -34 -10 8 -13 -5 -13 -25 0 -13 8 -12 10 3 10 10
0 16 4 13 8 -3 5 18 8 47 6 47 -3 49 -2 17 6 l-35 9 35 -4 c19 -2 51 -8 70
-13z m127 12 c-3 -3 -12 -4 -19 -1 -8 3 -5 6 6 6 11 1 17 -2 13 -5z m-312 -14
c3 -6 -4 -10 -17 -10 -18 0 -20 2 -8 10 19 12 18 12 25 0z m262 4 c-3 -3 -12
-4 -19 -1 -8 3 -5 6 6 6 11 1 17 -2 13 -5z m178 -4 c-11 -5 -27 -9 -35 -9 -9
0 -8 4 5 9 11 5 27 9 35 9 9 0 8 -4 -5 -9z m-552 -17 c-7 -2 -21 -2 -30 0 -10
3 -4 5 12 5 17 0 24 -2 18 -5z m494 1 c-3 -3 -12 -4 -19 -1 -8 3 -5 6 6 6 11
1 17 -2 13 -5z m-44 -11 c-7 -2 -19 -2 -25 0 -7 3 -2 5 12 5 14 0 19 -2 13 -5z
m72 -2 c-11 -5 -36 -11 -55 -14 -35 -6 -34 -6 5 8 43 14 84 19 50 6z m-118 -7
c-3 -3 -12 -4 -19 -1 -8 3 -5 6 6 6 11 1 17 -2 13 -5z m-184 -11 c-7 -2 -19
-2 -25 0 -7 3 -2 5 12 5 14 0 19 -2 13 -5z m134 1 c-3 -3 -12 -4 -19 -1 -8 3
-5 6 6 6 11 1 17 -2 13 -5z m-214 -11 c-7 -2 -21 -2 -30 0 -10 3 -4 5 12 5 17
0 24 -2 18 -5z m154 1 c-3 -3 -12 -4 -19 -1 -8 3 -5 6 6 6 11 1 17 -2 13 -5z
m126 -1 c-7 -2 -19 -2 -25 0 -7 3 -2 5 12 5 14 0 19 -2 13 -5z m94 1 c-3 -3
-12 -4 -19 -1 -8 3 -5 6 6 6 11 1 17 -2 13 -5z m-284 -11 c-7 -2 -19 -2 -25 0
-7 3 -2 5 12 5 14 0 19 -2 13 -5z m140 0 c-7 -2 -19 -2 -25 0 -7 3 -2 5 12 5
14 0 19 -2 13 -5z m104 1 c-3 -3 -12 -4 -19 -1 -8 3 -5 6 6 6 11 1 17 -2 13
-5z m-329 -11 c-10 -2 -26 -2 -35 0 -10 3 -2 5 17 5 19 0 27 -2 18 -5z m175 0
c-7 -2 -21 -2 -30 0 -10 3 -4 5 12 5 17 0 24 -2 18 -5z m114 1 c-3 -3 -12 -4
-19 -1 -8 3 -5 6 6 6 11 1 17 -2 13 -5z m-184 -11 c-7 -2 -21 -2 -30 0 -10 3
-4 5 12 5 17 0 24 -2 18 -5z m140 0 c-7 -2 -19 -2 -25 0 -7 3 -2 5 12 5 14 0
19 -2 13 -5z m142 -8 c-16 -8 -37 -14 -45 -14 -8 0 1 7 20 14 46 18 64 17 25
0z m-362 -2 c-13 -2 -33 -2 -45 0 -13 2 -3 4 22 4 25 0 35 -2 23 -4z m170 0
c-7 -2 -19 -2 -25 0 -7 3 -2 5 12 5 14 0 19 -2 13 -5z m114 1 c-3 -3 -12 -4
-19 -1 -8 3 -5 6 6 6 11 1 17 -2 13 -5z m-174 -11 c-7 -2 -21 -2 -30 0 -10 3
-4 5 12 5 17 0 24 -2 18 -5z m134 1 c-3 -3 -12 -4 -19 -1 -8 3 -5 6 6 6 11 1
17 -2 13 -5z m-540 -10 c-3 -3 -12 -4 -19 -1 -8 3 -5 6 6 6 11 1 17 -2 13 -5z
m321 -1 c-10 -2 -26 -2 -35 0 -10 3 -2 5 17 5 19 0 27 -2 18 -5z m169 1 c-3
-3 -12 -4 -19 -1 -8 3 -5 6 6 6 11 1 17 -2 13 -5z m88 -4 c-11 -5 -29 -8 -40
-8 -16 0 -15 2 5 8 34 11 60 11 35 0z m-387 -7 c-21 -2 -57 -2 -80 0 -24 2 -7
4 37 4 44 0 63 -2 43 -4z m245 0 c-7 -2 -19 -2 -25 0 -7 3 -2 5 12 5 14 0 19
-2 13 -5z m-70 -10 c-7 -2 -21 -2 -30 0 -10 3 -4 5 12 5 17 0 24 -2 18 -5z
m144 1 c-3 -3 -12 -4 -19 -1 -8 3 -5 6 6 6 11 1 17 -2 13 -5z m-289 -11 c-32
-2 -86 -2 -120 0 -35 2 -9 3 57 3 66 0 94 -1 63 -3z m245 0 c-7 -2 -21 -2 -30
0 -10 3 -4 5 12 5 17 0 24 -2 18 -5z m-60 -10 c-7 -2 -21 -2 -30 0 -10 3 -4 5
12 5 17 0 24 -2 18 -5z m-335 -10 c-10 -2 -28 -2 -40 0 -13 2 -5 4 17 4 22 1
32 -1 23 -4z m245 0 c-13 -2 -35 -2 -50 0 -16 2 -5 4 22 4 28 0 40 -2 28 -4z"/>
<path d="M1480 1555 c-7 -8 -17 -12 -24 -8 -6 4 -21 8 -33 9 -18 1 -20 -2 -12
-12 6 -7 18 -11 28 -9 12 2 40 -18 77 -56 33 -33 58 -62 57 -64 -2 -3 0 -6 4
-7 3 -2 7 5 9 15 1 9 -1 15 -6 12 -4 -2 -15 4 -25 15 -10 11 -14 20 -10 20 5
0 -4 14 -20 30 -16 17 -25 30 -21 30 5 0 3 6 -3 13 -6 8 -8 17 -4 20 3 4 4 7
1 7 -3 0 -11 -7 -18 -15z m16 -23 c-4 -3 6 -19 21 -36 25 -28 24 -28 -9 3 -21
19 -35 38 -32 43 3 4 10 6 15 2 6 -3 8 -9 5 -12z"/>
<path d="M1290 2295 c0 -8 2 -15 4 -15 2 0 6 7 10 15 3 8 1 15 -4 15 -6 0 -10
-7 -10 -15z"/>
<path d="M1350 2303 c0 -6 8 -17 18 -24 16 -13 16 -13 2 6 -8 11 -16 22 -17
24 -2 2 -3 0 -3 -6z"/>
<path d="M1221 2274 c0 -11 3 -14 6 -6 3 7 2 16 -1 19 -3 4 -6 -2 -5 -13z"/>
<path d="M1310 2275 c0 -8 2 -15 4 -15 2 0 6 7 10 15 3 8 1 15 -4 15 -6 0 -10
-7 -10 -15z"/>
<path d="M1241 2264 c0 -11 3 -14 6 -6 3 7 2 16 -1 19 -3 4 -6 -2 -5 -13z"/>
<path d="M1335 2270 c-3 -5 -1 -10 4 -10 6 0 11 5 11 10 0 6 -2 10 -4 10 -3 0
-8 -4 -11 -10z"/>
<path d="M1261 2254 c0 -11 3 -14 6 -6 3 7 2 16 -1 19 -3 4 -6 -2 -5 -13z"/>
<path d="M1112 2235 c0 -16 2 -22 5 -12 2 9 2 23 0 30 -3 6 -5 -1 -5 -18z"/>
<path d="M1132 2235 c0 -16 2 -22 5 -12 2 9 2 23 0 30 -3 6 -5 -1 -5 -18z"/>
<path d="M1280 2243 c0 -15 2 -16 10 -3 7 11 10 11 10 2 0 -7 5 -10 11 -6 8 4
7 9 -2 15 -21 13 -29 11 -29 -8z"/>
<path d="M1072 2230 c0 -14 2 -19 5 -12 2 6 2 18 0 25 -3 6 -5 1 -5 -13z"/>
<path d="M1328 2238 c-4 -10 -1 -19 8 -22 21 -8 24 -8 24 5 0 5 -4 8 -9 4 -5
-3 -11 3 -13 12 -3 16 -4 17 -10 1z"/>
<path d="M1295 2202 c-3 -3 -5 -10 -5 -16 0 -6 5 -4 11 4 8 11 9 7 6 -20 -5
-34 -5 -34 6 -9 7 14 18 24 25 22 6 -3 12 0 12 7 0 6 -4 8 -10 5 -5 -3 -10 -2
-10 3 0 9 -27 12 -35 4z"/>
<path d="M1082 2180 c0 -14 2 -19 5 -12 2 6 2 18 0 25 -3 6 -5 1 -5 -13z"/>
<path d="M1102 2180 c0 -14 2 -19 5 -12 2 6 2 18 0 25 -3 6 -5 1 -5 -13z"/>
<path d="M1113 2147 c-13 -61 -7 -117 9 -81 6 13 7 8 3 -16 -4 -27 -2 -31 6
-20 8 12 10 10 6 -10 -3 -14 0 -38 7 -55 l13 -30 13 38 14 37 18 -42 c24 -60
22 -35 -2 30 -20 52 -29 110 -10 67 11 -25 11 1 0 35 l-8 25 -2 -25 c-1 -16
-8 -3 -21 40 -17 60 -18 62 -14 20 l4 -45 -12 44 -12 43 -12 -55z m14 -19 c-3
-8 -6 -5 -6 6 -1 11 2 17 5 13 3 -3 4 -12 1 -19z m-10 -40 c-3 -8 -6 -5 -6 6
-1 11 2 17 5 13 3 -3 4 -12 1 -19z m33 6 c5 16 9 9 19 -27 8 -33 8 -53 2 -65
-8 -14 -10 -14 -11 -2 0 12 -2 12 -9 2 -5 -9 -8 -4 -8 15 1 15 -1 42 -4 58 -3
17 -4 23 -1 15 4 -12 6 -11 12 4z"/>
<path d="M1152 2065 c0 -11 3 -29 8 -40 11 -25 11 1 0 35 -6 20 -8 21 -8 5z"/>
<path d="M1091 2134 c0 -11 3 -14 6 -6 3 7 2 16 -1 19 -3 4 -6 -2 -5 -13z"/>
<path d="M1241 2024 c0 -11 3 -14 6 -6 3 7 2 16 -1 19 -3 4 -6 -2 -5 -13z"/>
<path d="M1457 2000 c-10 -17 -13 -30 -8 -30 6 0 11 5 11 10 0 6 5 10 10 10 7
0 7 -6 0 -20 -6 -11 -8 -20 -6 -20 3 0 12 13 21 30 14 26 14 29 0 24 -11 -5
-13 -2 -9 10 10 26 0 19 -19 -14z"/>
<path d="M1490 1971 c0 -12 28 -22 35 -12 3 5 -2 12 -11 15 -21 8 -24 8 -24
-3z"/>
<path d="M1231 1898 c-6 -17 -9 -34 -6 -36 3 -3 5 1 5 9 0 11 2 11 8 2 5 -8 8
1 8 22 0 19 -1 35 -2 35 -1 0 -7 -14 -13 -32z"/>
<path d="M1281 1874 c-6 -14 -9 -30 -6 -34 3 -5 -1 -22 -9 -38 -9 -18 -11 -33
-5 -43 5 -8 9 -9 9 -4 0 6 7 2 14 -8 12 -16 14 -16 14 7 0 18 -5 23 -19 21
-12 -3 -16 1 -12 12 5 12 7 12 14 1 7 -10 9 -10 9 2 1 9 6 5 14 -9 8 -14 11
-32 9 -40 -4 -10 0 -8 10 4 18 22 22 39 7 30 -5 -3 -19 13 -30 35 -16 32 -18
45 -9 61 6 11 9 23 6 25 -2 2 -9 -8 -16 -22z"/>
<path d="M1334 1691 c0 -11 5 -19 11 -18 5 1 10 -7 10 -18 0 -11 7 -20 15 -20
8 0 15 -9 15 -19 0 -11 8 -20 18 -22 15 -2 16 0 6 12 -9 11 -8 19 7 37 l19 22
-22 -18 c-21 -19 -22 -18 -49 22 -14 23 -27 41 -28 41 -1 0 -2 -9 -2 -19z"/>
<path d="M3495 1683 c-11 -3 -28 -15 -38 -26 -13 -16 -16 -17 -11 -4 6 18 -10
24 -21 7 -3 -5 -12 -7 -19 -4 -8 3 -17 0 -21 -5 -3 -6 -11 -9 -16 -5 -27 16
-239 -74 -239 -102 0 -8 5 -14 12 -14 6 0 8 -3 5 -6 -4 -4 -13 -1 -22 6 -20
17 -47 6 -38 -16 5 -13 3 -15 -7 -9 -8 5 -11 4 -6 -3 4 -6 14 -8 23 -5 12 5
14 3 8 -7 -6 -10 -4 -12 11 -6 14 5 16 4 8 -4 -9 -9 -19 -8 -40 3 -24 11 -34
11 -53 1 -22 -11 -21 -13 30 -33 33 -13 42 -19 24 -16 -16 3 -37 0 -45 -6 -12
-8 -10 -9 9 -4 17 5 22 4 16 -6 -6 -9 -2 -10 16 -5 13 4 50 15 82 23 40 11 54
19 45 24 -17 11 -10 11 30 0 25 -8 32 -7 32 4 0 8 -8 19 -17 25 -15 8 -12 9
12 4 23 -4 27 -3 15 5 -12 9 -8 10 15 5 23 -4 27 -3 15 5 -12 9 -9 10 14 5 21
-5 27 -4 22 5 -4 6 -2 11 5 11 7 0 10 2 8 4 -3 3 -23 1 -46 -4 -27 -6 -50 -6
-65 0 -19 8 -17 9 12 4 26 -4 31 -3 20 5 -11 8 -6 10 20 6 26 -4 30 -3 15 4
-14 6 -2 8 40 6 57 -3 58 -2 32 11 -15 8 -27 17 -27 20 0 6 44 22 78 29 21 4
19 2 -8 -9 -41 -17 -27 -21 19 -5 28 10 35 19 32 41 0 3 13 11 29 17 17 5 30
15 30 20 0 11 -10 12 -45 4z m-275 -97 c0 -2 -7 -7 -16 -10 -8 -3 -12 -2 -9 4
6 10 25 14 25 6z m97 -12 c-3 -3 -12 -4 -19 -1 -8 3 -5 6 6 6 11 1 17 -2 13
-5z m-77 -18 c0 -2 -7 -7 -16 -10 -8 -3 -12 -2 -9 4 6 10 25 14 25 6z m-5 -36
c13 -5 14 -9 5 -9 -8 0 -24 4 -35 9 -13 5 -14 9 -5 9 8 0 24 -4 35 -9z m-65
-24 c0 -2 -7 -7 -16 -10 -8 -3 -12 -2 -9 4 6 10 25 14 25 6z m70 -16 c18 -12
2 -12 -25 0 -13 6 -15 9 -5 9 8 0 22 -4 30 -9z m-53 -6 c-3 -3 -12 -4 -19 -1
-8 3 -5 6 6 6 11 1 17 -2 13 -5z"/>
<path d="M1439 1603 c-13 -16 -12 -17 4 -4 9 7 17 15 17 17 0 8 -8 3 -21 -13z"/>
<path d="M3380 1580 c8 -5 24 -9 35 -9 l20 0 -20 9 c-11 5 -27 9 -35 9 -13 1
-13 0 0 -9z"/>
<path d="M3290 1480 c-8 -5 -12 -11 -10 -14 3 -2 14 2 24 10 22 15 10 19 -14
4z"/>
<path d="M2972 1451 c2 -17 -3 -31 -12 -31 -5 0 -7 7 -3 16 3 8 -7 3 -24 -13
-25 -24 -27 -30 -14 -41 9 -7 21 -10 27 -8 7 3 25 1 41 -4 26 -7 25 -8 -12 -7
-22 0 -54 6 -72 13 -26 11 -33 11 -43 -2 -8 -8 -21 -12 -31 -9 -12 4 -19 1
-19 -6 0 -7 3 -9 7 -6 3 4 12 2 20 -4 10 -9 18 -8 32 5 16 15 21 15 55 1 36
-15 42 -14 178 25 78 22 149 38 157 35 10 -4 12 -3 6 3 -5 5 -23 12 -40 16
-23 5 -27 4 -15 -5 12 -8 10 -10 -10 -5 -14 3 -48 -1 -75 -9 -39 -12 -56 -13
-84 -4 -39 12 -67 32 -41 29 27 -4 53 0 47 7 -9 8 -76 13 -75 4z m215 -37 c-3
-3 -12 -4 -19 -1 -8 3 -5 6 6 6 11 1 17 -2 13 -5z m-218 -13 c9 -6 6 -8 -13
-8 -14 0 -23 3 -20 8 7 11 15 11 33 0z m81 -6 c19 -7 28 -14 20 -14 -8 0 -28
6 -45 14 -39 17 -21 18 25 0z m-25 -15 c13 -6 15 -9 5 -9 -8 0 -22 4 -30 9
-18 12 -2 12 25 0z"/>
<path d="M3280 1440 c-8 -5 -10 -10 -5 -10 6 0 17 5 25 10 8 5 11 10 5 10 -5
0 -17 -5 -25 -10z"/>
<path d="M3160 1340 c-8 -5 -10 -10 -5 -10 6 0 17 5 25 10 8 5 11 10 5 10 -5
0 -17 -5 -25 -10z"/>
<path d="M3120 1326 c0 -2 7 -7 16 -10 8 -3 12 -2 9 4 -6 10 -25 14 -25 6z"/>
</g>
</svg>
